<svg width="185" height="185" viewBox="0 0 185 185" fill="none" xmlns="http://www.w3.org/2000/svg">
<circle cx="92.5" cy="92.5" r="90" fill="white" fill-opacity="0.8" stroke="#B3B3B3" stroke-width="5"/>
<path d="M69.7846 76.412C69.7846 77.684 69.4606 78.824 68.8126 79.832C68.1646 80.816 67.2886 81.596 66.1846 82.172C65.1046 82.724 63.9166 83 62.6206 83H50.5606V57.44H62.8726C64.0726 57.44 65.1046 57.764 65.9686 58.412C66.8566 59.036 67.5286 59.852 67.9846 60.86C68.4646 61.844 68.7046 62.876 68.7046 63.956C68.7046 65.228 68.3806 66.404 67.7326 67.484C67.0846 68.564 66.1846 69.368 65.0326 69.896C66.4966 70.328 67.6486 71.132 68.4886 72.308C69.3526 73.484 69.7846 74.852 69.7846 76.412ZM67.2646 75.98C67.2646 75.116 67.0726 74.324 66.6886 73.604C66.3046 72.86 65.7766 72.26 65.1046 71.804C64.4566 71.348 63.7126 71.12 62.8726 71.12H53.0806V80.804H62.6206C63.4846 80.804 64.2646 80.576 64.9606 80.12C65.6566 79.664 66.2086 79.076 66.6166 78.356C67.0486 77.612 67.2646 76.82 67.2646 75.98ZM53.0806 59.636V69.068H61.8646C62.7046 69.068 63.4486 68.852 64.0966 68.42C64.7446 67.964 65.2606 67.376 65.6446 66.656C66.0286 65.936 66.2206 65.168 66.2206 64.352C66.2206 63.488 66.0406 62.708 65.6806 62.012C65.3206 61.292 64.8286 60.716 64.2046 60.284C63.5806 59.852 62.8726 59.636 62.0806 59.636H53.0806ZM83.8252 83.36C82.4812 83.36 81.2332 83.108 80.0812 82.604C78.9532 82.076 77.9692 81.368 77.1292 80.48C76.3132 79.568 75.6772 78.536 75.2212 77.384C74.7652 76.208 74.5372 74.972 74.5372 73.676C74.5372 72.332 74.7652 71.084 75.2212 69.932C75.6772 68.756 76.3252 67.724 77.1652 66.836C78.0052 65.924 78.9892 65.216 80.1172 64.712C81.2692 64.184 82.5172 63.92 83.8612 63.92C85.2052 63.92 86.4412 64.184 87.5692 64.712C88.6972 65.216 89.6812 65.924 90.5212 66.836C91.3612 67.724 92.0092 68.756 92.4652 69.932C92.9212 71.084 93.1492 72.332 93.1492 73.676C93.1492 74.972 92.9212 76.208 92.4652 77.384C92.0092 78.536 91.3612 79.568 90.5212 80.48C89.7052 81.368 88.7212 82.076 87.5692 82.604C86.4412 83.108 85.1932 83.36 83.8252 83.36ZM77.0212 73.712C77.0212 75.104 77.3212 76.376 77.9212 77.528C78.5452 78.656 79.3732 79.556 80.4052 80.228C81.4372 80.876 82.5772 81.2 83.8252 81.2C85.0732 81.2 86.2132 80.864 87.2452 80.192C88.2772 79.52 89.1052 78.608 89.7292 77.456C90.3532 76.28 90.6652 75.008 90.6652 73.64C90.6652 72.248 90.3532 70.976 89.7292 69.824C89.1052 68.672 88.2772 67.76 87.2452 67.088C86.2132 66.416 85.0732 66.08 83.8252 66.08C82.5772 66.08 81.4372 66.428 80.4052 67.124C79.3972 67.82 78.5812 68.744 77.9572 69.896C77.3332 71.024 77.0212 72.296 77.0212 73.712ZM107.035 83.36C105.691 83.36 104.443 83.108 103.291 82.604C102.163 82.076 101.179 81.368 100.339 80.48C99.5234 79.568 98.8874 78.536 98.4314 77.384C97.9754 76.208 97.7474 74.972 97.7474 73.676C97.7474 72.332 97.9754 71.084 98.4314 69.932C98.8874 68.756 99.5354 67.724 100.375 66.836C101.215 65.924 102.199 65.216 103.327 64.712C104.479 64.184 105.727 63.92 107.071 63.92C108.415 63.92 109.651 64.184 110.779 64.712C111.907 65.216 112.891 65.924 113.731 66.836C114.571 67.724 115.219 68.756 115.675 69.932C116.131 71.084 116.359 72.332 116.359 73.676C116.359 74.972 116.131 76.208 115.675 77.384C115.219 78.536 114.571 79.568 113.731 80.48C112.915 81.368 111.931 82.076 110.779 82.604C109.651 83.108 108.403 83.36 107.035 83.36ZM100.231 73.712C100.231 75.104 100.531 76.376 101.131 77.528C101.755 78.656 102.583 79.556 103.615 80.228C104.647 80.876 105.787 81.2 107.035 81.2C108.283 81.2 109.423 80.864 110.455 80.192C111.487 79.52 112.315 78.608 112.939 77.456C113.563 76.28 113.875 75.008 113.875 73.64C113.875 72.248 113.563 70.976 112.939 69.824C112.315 68.672 111.487 67.76 110.455 67.088C109.423 66.416 108.283 66.08 107.035 66.08C105.787 66.08 104.647 66.428 103.615 67.124C102.607 67.82 101.791 68.744 101.167 69.896C100.543 71.024 100.231 72.296 100.231 73.712ZM135.646 83L128.698 73.388L124.702 77.132V83H122.254V56.72H124.702V74.504L135.322 64.28H138.022L130.354 71.948L138.31 83H135.646ZM58.1291 107.084V128H55.6091V102.44H57.6971L74.4731 123.752V102.476H76.9931V128H74.6531L58.1291 107.084ZM92.4244 128.36C91.0804 128.36 89.8324 128.108 88.6804 127.604C87.5524 127.076 86.5684 126.368 85.7284 125.48C84.9124 124.568 84.2764 123.536 83.8204 122.384C83.3644 121.208 83.1364 119.972 83.1364 118.676C83.1364 117.332 83.3644 116.084 83.8204 114.932C84.2764 113.756 84.9244 112.724 85.7644 111.836C86.6044 110.924 87.5884 110.216 88.7164 109.712C89.8684 109.184 91.1164 108.92 92.4604 108.92C93.8044 108.92 95.0404 109.184 96.1684 109.712C97.2964 110.216 98.2804 110.924 99.1204 111.836C99.9604 112.724 100.608 113.756 101.064 114.932C101.52 116.084 101.748 117.332 101.748 118.676C101.748 119.972 101.52 121.208 101.064 122.384C100.608 123.536 99.9604 124.568 99.1204 125.48C98.3044 126.368 97.3204 127.076 96.1684 127.604C95.0404 128.108 93.7924 128.36 92.4244 128.36ZM85.6204 118.712C85.6204 120.104 85.9204 121.376 86.5204 122.528C87.1444 123.656 87.9724 124.556 89.0044 125.228C90.0364 125.876 91.1764 126.2 92.4244 126.2C93.6724 126.2 94.8124 125.864 95.8444 125.192C96.8764 124.52 97.7044 123.608 98.3284 122.456C98.9524 121.28 99.2644 120.008 99.2644 118.64C99.2644 117.248 98.9524 115.976 98.3284 114.824C97.7044 113.672 96.8764 112.76 95.8444 112.088C94.8124 111.416 93.6724 111.08 92.4244 111.08C91.1764 111.08 90.0364 111.428 89.0044 112.124C87.9964 112.82 87.1804 113.744 86.5564 114.896C85.9324 116.024 85.6204 117.296 85.6204 118.712ZM130.626 109.244H133.038L124.974 128H122.85L118.926 118.676L115.038 128H112.914L104.85 109.244H107.226L114.066 125.48L117.522 117.02L114.354 109.28H116.55L118.926 115.364L121.338 109.28H123.498L120.366 117.02L123.822 125.48L130.626 109.244Z" fill="black"/>
</svg>
