<svg width="89" height="310" viewBox="0 0 89 310" fill="none" xmlns="http://www.w3.org/2000/svg">
<g filter="url(#filter0_bd_298_45)">
<rect x="4" y="302" width="302" height="85" transform="rotate(-90 4 302)" fill="#6B3C1F"/>
</g>
<path d="M55.4 236.417C55.4 238.044 54.9867 239.551 54.16 240.937C53.3067 242.324 52.24 243.404 50.96 244.177H55V246.617H25.8V243.897H38.52C37.1067 242.964 35.9733 241.844 35.12 240.537C34.24 239.231 33.8 237.711 33.8 235.977C33.8 234.511 34.1067 233.204 34.72 232.057C35.3333 230.884 36.16 229.884 37.2 229.057C38.2133 228.231 39.3733 227.604 40.68 227.177C41.96 226.751 43.28 226.537 44.64 226.537C46.1067 226.537 47.48 226.791 48.76 227.297C50.04 227.777 51.1867 228.471 52.2 229.377C53.1867 230.284 53.9733 231.337 54.56 232.537C55.12 233.711 55.4 235.004 55.4 236.417ZM53 237.057C53 235.937 52.7733 234.897 52.32 233.937C51.8667 232.977 51.24 232.151 50.44 231.457C49.64 230.764 48.7467 230.231 47.76 229.857C46.7467 229.484 45.7067 229.297 44.64 229.297C43.1733 229.297 41.8 229.617 40.52 230.257C39.2133 230.871 38.1733 231.737 37.4 232.857C36.6 233.951 36.2 235.244 36.2 236.737C36.2 237.804 36.44 238.804 36.92 239.737C37.4 240.644 38.04 241.457 38.84 242.177C39.6133 242.871 40.4667 243.444 41.4 243.897H47.88C48.6 243.791 49.28 243.511 49.92 243.057C50.5333 242.604 51.0667 242.044 51.52 241.377C51.9733 240.684 52.3333 239.964 52.6 239.217C52.8667 238.471 53 237.751 53 237.057ZM55.4 211.05C55.4 212.543 55.12 213.93 54.56 215.21C53.9733 216.463 53.1867 217.556 52.2 218.49C51.1867 219.396 50.04 220.103 48.76 220.61C47.4533 221.116 46.08 221.37 44.64 221.37C43.1467 221.37 41.76 221.116 40.48 220.61C39.1733 220.103 38.0267 219.383 37.04 218.45C36.0267 217.516 35.24 216.423 34.68 215.17C34.0933 213.89 33.8 212.503 33.8 211.01C33.8 209.516 34.0933 208.143 34.68 206.89C35.24 205.636 36.0267 204.543 37.04 203.61C38.0267 202.676 39.1733 201.956 40.48 201.45C41.76 200.943 43.1467 200.69 44.64 200.69C46.08 200.69 47.4533 200.943 48.76 201.45C50.04 201.956 51.1867 202.676 52.2 203.61C53.1867 204.516 53.9733 205.61 54.56 206.89C55.12 208.143 55.4 209.53 55.4 211.05ZM44.68 218.61C46.2267 218.61 47.64 218.276 48.92 217.61C50.1733 216.916 51.1733 215.996 51.92 214.85C52.64 213.703 53 212.436 53 211.05C53 209.663 52.6267 208.396 51.88 207.25C51.1333 206.103 50.12 205.183 48.84 204.49C47.5333 203.796 46.12 203.45 44.6 203.45C43.0533 203.45 41.64 203.796 40.36 204.49C39.08 205.183 38.0667 206.103 37.32 207.25C36.5733 208.396 36.2 209.663 36.2 211.05C36.2 212.436 36.5867 213.703 37.36 214.85C38.1333 215.97 39.16 216.876 40.44 217.57C41.6933 218.263 43.1067 218.61 44.68 218.61ZM55.4 185.261C55.4 186.754 55.12 188.141 54.56 189.421C53.9733 190.674 53.1867 191.767 52.2 192.701C51.1867 193.607 50.04 194.314 48.76 194.821C47.4533 195.327 46.08 195.581 44.64 195.581C43.1467 195.581 41.76 195.327 40.48 194.821C39.1733 194.314 38.0267 193.594 37.04 192.661C36.0267 191.727 35.24 190.634 34.68 189.381C34.0933 188.101 33.8 186.714 33.8 185.221C33.8 183.727 34.0933 182.354 34.68 181.101C35.24 179.847 36.0267 178.754 37.04 177.821C38.0267 176.887 39.1733 176.167 40.48 175.661C41.76 175.154 43.1467 174.901 44.64 174.901C46.08 174.901 47.4533 175.154 48.76 175.661C50.04 176.167 51.1867 176.887 52.2 177.821C53.1867 178.727 53.9733 179.821 54.56 181.101C55.12 182.354 55.4 183.741 55.4 185.261ZM44.68 192.821C46.2267 192.821 47.64 192.487 48.92 191.821C50.1733 191.127 51.1733 190.207 51.92 189.061C52.64 187.914 53 186.647 53 185.261C53 183.874 52.6267 182.607 51.88 181.461C51.1333 180.314 50.12 179.394 48.84 178.701C47.5333 178.007 46.12 177.661 44.6 177.661C43.0533 177.661 41.64 178.007 40.36 178.701C39.08 179.394 38.0667 180.314 37.32 181.461C36.5733 182.607 36.2 183.874 36.2 185.261C36.2 186.647 36.5867 187.914 37.36 189.061C38.1333 190.181 39.16 191.087 40.44 191.781C41.6933 192.474 43.1067 192.821 44.68 192.821ZM55 153.472L44.32 161.192L48.48 165.632H55V168.352H25.8V165.632H45.56L34.2 153.832V150.832L42.72 159.352L55 150.512V153.472ZM55 115.425V118.145H43.36C40.9067 118.145 39.12 118.505 38 119.225C36.8533 119.945 36.28 121.079 36.28 122.625C36.28 123.692 36.5467 124.745 37.08 125.785C37.5867 126.825 38.2933 127.745 39.2 128.545C40.08 129.319 41.0933 129.879 42.24 130.225H55V132.945H34.16V130.465H38.88C37.8667 129.905 36.9867 129.172 36.24 128.265C35.4667 127.359 34.8667 126.332 34.44 125.185C34.0133 124.039 33.8 122.852 33.8 121.625C33.8 120.479 34.0133 119.505 34.44 118.705C34.8667 117.905 35.48 117.265 36.28 116.785C37.0533 116.305 38 115.959 39.12 115.745C40.2133 115.532 41.44 115.425 42.8 115.425H55ZM55.4 98.745C55.4 100.238 55.12 101.625 54.56 102.905C53.9733 104.158 53.1867 105.252 52.2 106.185C51.1867 107.092 50.04 107.798 48.76 108.305C47.4533 108.812 46.08 109.065 44.64 109.065C43.1467 109.065 41.76 108.812 40.48 108.305C39.1733 107.798 38.0267 107.078 37.04 106.145C36.0267 105.212 35.24 104.118 34.68 102.865C34.0933 101.585 33.8 100.198 33.8 98.705C33.8 97.2117 34.0933 95.8383 34.68 94.585C35.24 93.3317 36.0267 92.2383 37.04 91.305C38.0267 90.3717 39.1733 89.6517 40.48 89.145C41.76 88.6383 43.1467 88.385 44.64 88.385C46.08 88.385 47.4533 88.6383 48.76 89.145C50.04 89.6517 51.1867 90.3717 52.2 91.305C53.1867 92.2117 53.9733 93.305 54.56 94.585C55.12 95.8383 55.4 97.225 55.4 98.745ZM44.68 106.305C46.2267 106.305 47.64 105.972 48.92 105.305C50.1733 104.612 51.1733 103.692 51.92 102.545C52.64 101.398 53 100.132 53 98.745C53 97.3583 52.6267 96.0917 51.88 94.945C51.1333 93.7983 50.12 92.8783 48.84 92.185C47.5333 91.4917 46.12 91.145 44.6 91.145C43.0533 91.145 41.64 91.4917 40.36 92.185C39.08 92.8783 38.0667 93.7983 37.32 94.945C36.5733 96.0917 36.2 97.3583 36.2 98.745C36.2 100.132 36.5867 101.398 37.36 102.545C38.1333 103.665 39.16 104.572 40.44 105.265C41.6933 105.958 43.1067 106.305 44.68 106.305ZM34.16 56.2991V53.6191L55 62.5791V64.9391L44.64 69.2991L55 73.6191V75.9791L34.16 84.9391V82.2991L52.2 74.6991L42.8 70.8591L34.2 74.3791V71.9391L40.96 69.2991L34.2 66.6191V64.2191L42.8 67.6991L52.2 63.8591L34.16 56.2991Z" fill="#FDF8F8"/>
<defs>
<filter id="filter0_bd_298_45" x="0" y="-4" width="93" height="314" filterUnits="userSpaceOnUse" color-interpolation-filters="sRGB">
<feFlood flood-opacity="0" result="BackgroundImageFix"/>
<feGaussianBlur in="BackgroundImage" stdDeviation="2"/>
<feComposite in2="SourceAlpha" operator="in" result="effect1_backgroundBlur_298_45"/>
<feColorMatrix in="SourceAlpha" type="matrix" values="0 0 0 0 0 0 0 0 0 0 0 0 0 0 0 0 0 0 127 0" result="hardAlpha"/>
<feOffset dy="4"/>
<feGaussianBlur stdDeviation="2"/>
<feComposite in2="hardAlpha" operator="out"/>
<feColorMatrix type="matrix" values="0 0 0 0 0 0 0 0 0 0 0 0 0 0 0 0 0 0 0.25 0"/>
<feBlend mode="normal" in2="effect1_backgroundBlur_298_45" result="effect2_dropShadow_298_45"/>
<feBlend mode="normal" in="SourceGraphic" in2="effect2_dropShadow_298_45" result="shape"/>
</filter>
</defs>
</svg>
